<?xml version="1.0" encoding="UTF-8"?>
<svg version="1.1" xmlns="http://www.w3.org/2000/svg" width="1024" height="1024">
<path d="M0 0 C337.92 0 675.84 0 1024 0 C1024 337.92 1024 675.84 1024 1024 C686.08 1024 348.16 1024 0 1024 C0 686.08 0 348.16 0 0 Z " fill="#212D3A" transform="translate(0,0)"/>
<path d="M0 0 C3.98804391 4.08078912 6.31059909 8.21853157 8.3125 13.5625 C8.74526245 14.69860718 8.74526245 14.69860718 9.18676758 15.85766602 C25.17121898 59.43417283 34.23783226 111.01996288 25 157 C24.83371094 157.82902832 24.66742187 158.65805664 24.49609375 159.51220703 C15.84625856 200.89526111 -8.31072279 236.34078826 -42.0234375 261.51953125 C-44.1633168 263.12232622 -46.28424921 264.74862223 -48.40625 266.375 C-58.69079348 274.18327552 -69.28797438 281.10586047 -80.47607422 287.54541016 C-82.96260739 288.97844988 -85.4369779 290.4307784 -87.91015625 291.88671875 C-104.9538019 301.8500273 -122.57995315 310.72047746 -140.18269348 319.64208984 C-159.12269899 329.24550547 -177.85674182 338.93991704 -196 350 C-197.44491502 350.86264528 -198.8902044 351.72466396 -200.3359375 352.5859375 C-215.87872963 361.9524754 -230.45854371 372.92978841 -244 385 C-244.54350098 385.48178711 -245.08700195 385.96357422 -245.64697266 386.45996094 C-273.60400709 411.36286556 -296.47784286 443.79948968 -300 482 C-300.95466126 501.09322525 -297.33882881 517.07615719 -291 535 C-285.18395973 530.17193418 -279.84665955 524.97631865 -274.51977539 519.61743164 C-273.10062743 518.19604214 -271.68147933 516.77465277 -270.26232612 515.3532685 C-268.74912935 513.83671759 -267.23718672 512.3189266 -265.7256031 510.8007679 C-262.56256526 507.624115 -259.39563389 504.45136257 -256.22813416 501.27915955 C-248.93274374 493.97176658 -241.64238543 486.65936002 -234.35208893 479.34688568 C-227.66853324 472.64309859 -220.98389379 465.94040156 -214.29517931 459.24176115 C-211.15319227 456.09482209 -208.01365258 452.94546856 -204.87602818 449.79418004 C-203.39046477 448.3029215 -201.90373486 446.81283758 -200.41648865 445.32325745 C-198.61236114 443.51628572 -196.8100096 441.70753812 -195.0098877 439.89657593 C-191.42494724 436.31132294 -187.83075311 432.79645636 -183.98632812 429.48930359 C-179.2892409 425.44752336 -174.96300789 421.06450927 -170.60913086 416.65917969 C-169.2218732 415.26228261 -167.83461248 413.86538857 -166.44723713 412.46860838 C-164.97026953 410.98079069 -163.49452253 409.49177111 -162.0190258 408.00249481 C-158.92256786 404.87791172 -155.82045249 401.75898599 -152.71717834 398.64117432 C-151.64885309 397.56770629 -150.58053477 396.49423135 -149.51222324 395.42074966 C-148.97750782 394.88344868 -148.4427924 394.3461477 -147.89187348 393.79256487 C-140.68139289 386.54624073 -133.47570133 379.29520573 -126.28051758 372.03369141 C-121.40931227 367.11767137 -116.5307534 362.20907315 -111.64409548 357.30841184 C-109.06890026 354.72522726 -106.49741053 352.13859943 -103.93504143 349.54268646 C-82.55587233 327.89212879 -60.02373814 307.90313715 -28 307 C-27.21705566 306.97421875 -26.43411133 306.9484375 -25.62744141 306.921875 C3.57747031 306.06746178 30.14441238 313.96295598 52 334 C52.92425781 334.84304688 53.84851563 335.68609375 54.80078125 336.5546875 C70.2173273 351.26757377 78.78767219 368.36865251 83 389 C83.19335938 389.94101562 83.38671875 390.88203125 83.5859375 391.8515625 C86.22044077 411.88372889 82.66738793 430.56352999 75 449 C75.62342285 449.12004395 76.2468457 449.24008789 76.88916016 449.36376953 C102.62765575 454.40523274 123.92749752 463.4703704 140.1953125 484.890625 C141.94247503 487.53784096 143.50838239 490.20167606 145 493 C145.45761719 493.84691406 145.91523437 494.69382812 146.38671875 495.56640625 C155.78088062 514.49578347 156.52108527 535.05787048 150 555 C146.82369657 563.74446266 142.28468415 571.1184218 136.12553406 578.06439209 C135.56008588 578.70853616 134.99463769 579.35268024 134.41205472 580.01634383 C128.02728775 587.21279696 121.25284341 594.00571263 114.42895508 600.78222656 C113.02099334 602.18797989 111.6134855 603.59418794 110.20639038 605.00080872 C107.20838832 607.99590774 104.20729561 610.98786011 101.20362282 613.97727203 C96.45437736 618.7040344 91.71242978 623.43807469 86.97135925 628.17303467 C79.48043029 635.65264511 71.98483086 643.12755443 64.4871251 650.60037112 C51.02956557 664.01335061 37.57782561 677.43216111 24.13117522 690.85607696 C19.41516336 695.56368242 14.69635932 700.26846597 9.97528517 704.97099447 C7.04995018 707.88570869 4.12662714 710.80243457 1.20380783 713.71967125 C-0.153861 715.07386276 -1.5124011 716.4271814 -2.87186241 717.77957344 C-4.72291682 719.62121044 -6.57089376 721.46588137 -8.4181366 723.31134033 C-8.95984896 723.84877562 -9.50156133 724.3862109 -10.05968922 724.93993211 C-14.6514227 729.29200829 -14.6514227 729.29200829 -16.0703125 735.19140625 C-14.59544387 740.43957018 -11.68742451 743.1650914 -7.875 746.9375 C-6.55856889 748.27864671 -5.24346086 749.62109342 -3.9296875 750.96484375 C-2.95467285 751.95653564 -2.95467285 751.95653564 -1.95996094 752.96826172 C9.23329941 764.57143968 9.23329941 764.57143968 9.4375 771.25 C9.29867869 776.52520964 7.43314556 780.06046546 4 784 C-1.12720535 788.61219589 -5.79221322 790.45689141 -12.7890625 790.33984375 C-23.07890872 788.75818894 -29.86775843 779.34669987 -36.18359375 771.95703125 C-38.00627059 769.99324395 -39.91729892 768.36890993 -42 766.6875 C-46.8662618 762.54881521 -49.92876209 757.54935315 -53 752 C-53.36351562 751.37738281 -53.72703125 750.75476563 -54.1015625 750.11328125 C-58.02528127 741.95414642 -57.23985358 729.58810327 -54.5 721.125 C-49.8265198 710.74184592 -42.03573093 702.60043715 -34.02319336 694.69848633 C-33.04750676 693.72529111 -32.0724954 692.75141853 -31.09809875 691.77693176 C-29.01928691 689.70079935 -26.93586703 687.62945393 -24.84852409 685.56189919 C-21.54094398 682.28566982 -18.24407496 678.9987952 -14.94837952 675.71061707 C-9.73185291 670.50851099 -4.50815079 665.31367844 0.71861881 660.12186593 C10.07600343 650.82660608 19.42112733 641.51902736 28.7634477 632.20862979 C32.03505865 628.94877228 35.30982487 625.69212856 38.58736241 622.43823016 C40.63124617 620.40827361 42.67306497 618.3762487 44.71444893 616.34377861 C46.09845966 614.96716885 47.48507559 613.59317981 48.87179565 612.21929932 C53.25813013 607.84843534 57.47693334 603.40980641 61.51164913 598.71237659 C63.39746818 596.54270514 65.39388467 594.51365894 67.44726562 592.50268555 C68.2449939 591.71794357 69.04272217 590.9332016 69.86462402 590.12467957 C70.7033606 589.3036525 71.54209717 588.48262543 72.40625 587.63671875 C74.22049991 585.84485435 76.03428785 584.05252211 77.84765625 582.25976562 C80.67358846 579.47086828 83.50239665 576.68515342 86.33935547 573.9074707 C89.10017071 571.20152672 91.84778568 568.48272175 94.59375 565.76171875 C95.85185486 564.53928719 95.85185486 564.53928719 97.13537598 563.29216003 C107.29997428 553.1725384 113.87400898 542.69765077 114.5 528.1875 C114.18957356 516.27488527 109.38495907 506.36976892 101 498 C90.6281118 489.04070105 77.06405016 486.58616789 63.7265625 486.7265625 C47.791444 487.895806 36.38005915 496.99235669 25.55908203 507.98681641 C24.5713718 508.97565827 23.58277335 509.96361358 22.59336853 510.95075989 C19.93804771 513.60494415 17.29515132 516.27118317 14.65448618 518.93993807 C11.87612225 521.74352778 9.08621368 524.5355839 6.2975769 527.32894897 C1.02592106 532.61298566 -4.23546971 537.90711966 -9.49314225 543.20506608 C-15.46415606 549.22082681 -21.44655448 555.22521088 -27.42994857 561.22865415 C-37.65897791 571.49234448 -47.87947571 581.7644633 -58.09049988 592.04606628 C-68.59748547 602.62528863 -68.59748547 602.62528863 -71.7734375 605.73828125 C-74.67263492 608.58798018 -77.45132018 611.48119291 -80.0859375 614.578125 C-84.58796935 619.74944223 -89.40519654 624.58920101 -94.25 629.4375 C-95.12785156 630.32759766 -96.00570313 631.21769531 -96.91015625 632.13476562 C-111.75658088 647.01379587 -127.02768719 658.49672536 -148.8125 659.4375 C-164.85334524 658.94948487 -178.77656537 652.93069738 -190.35546875 641.8984375 C-204.32171645 626.59126498 -208.02486783 609.0891208 -207.2265625 588.83544922 C-204.91719676 559.93353792 -180.65119032 539.50475768 -161.4440918 520.28295898 C-160.01361144 518.84783813 -158.58332426 517.41252469 -157.1532135 515.97703552 C-153.30483924 512.11566981 -149.45324811 508.25752961 -145.60060859 504.40041995 C-143.19043083 501.98729508 -140.78083433 499.57359124 -138.37140846 497.15971565 C-130.82172387 489.59640272 -123.27007489 482.0350595 -115.71551293 474.47661823 C-107.01190587 465.76851564 -98.31490823 457.05388156 -89.62349957 448.33360428 C-82.88628066 441.5747875 -76.14332605 434.82172839 -69.39596874 428.07303292 C-65.37260678 424.04862331 -61.35170882 420.02182343 -57.3367672 415.98901176 C-53.56841743 412.20421017 -49.79300567 408.42660007 -46.01202965 404.65441322 C-44.62672333 403.26987832 -43.24397795 401.88277556 -41.86400223 400.49292755 C-39.9796092 398.59584586 -38.0861877 396.70825373 -36.19023132 394.82273865 C-35.64713324 394.27158416 -35.10403515 393.72042967 -34.54447955 393.15257353 C-30.51038756 389.17022779 -26.69707469 386.35820523 -21 385.6015625 C-14.10345802 385.65544173 -9.22883943 385.77116057 -4.125 390.875 C0.88643811 396.37141599 2.32554956 400.01098241 2.20703125 407.4453125 C1.14808364 420.51232644 -14.21216199 431.31726061 -22.94384766 439.97802734 C-24.4640971 441.48979963 -25.98408423 443.00183572 -27.50382996 444.51411438 C-30.76554315 447.75916563 -34.02862706 451.00283008 -37.29265213 454.24555588 C-42.4574267 459.37760318 -47.61615345 464.5157004 -52.77352905 469.65518188 C-53.64564581 470.52421217 -54.51776256 471.39324246 -55.41630709 472.288607 C-57.19893115 474.0649238 -58.98154647 475.84124937 -60.76415324 477.61758351 C-72.76304747 489.57353139 -84.76640087 501.52494643 -96.78417969 513.46191406 C-104.90349776 521.52672893 -113.01387049 529.60042315 -121.11414182 537.68436968 C-125.3960903 541.95695606 -129.682494 546.22484897 -133.97993851 550.48185349 C-138.02085857 554.48485203 -142.04990983 558.49942409 -146.07029152 562.52304649 C-147.54413008 563.99392196 -149.02224048 565.46053184 -150.50499153 566.92242241 C-162.49157711 578.32777375 -162.49157711 578.32777375 -168.59375 593.35546875 C-168.29207065 602.46869912 -166.67654075 608.32345925 -160 615 C-154.27404812 618.43557113 -148.59304416 618.96787421 -142 618 C-128.89988866 613.3107556 -116.79948057 596.95330141 -107.1027832 587.26391602 C-105.64784117 585.81361451 -104.19270656 584.36350617 -102.73739624 582.91357422 C-98.81984089 579.00901719 -94.90551669 575.10123755 -90.99222207 571.19241071 C-88.54085762 568.74399455 -86.08891457 566.29615923 -83.63680077 563.84849358 C-75.94532731 556.17065547 -68.25582982 548.49084664 -60.56923229 540.80812699 C-51.73045379 531.97383411 -42.88516263 523.14613103 -34.03417522 514.32407051 C-27.16567915 507.47723687 -20.30300335 500.6246046 -13.44466275 493.76759857 C-9.35970132 489.68368092 -5.27238919 485.60218689 -1.17897987 481.52673531 C2.66991571 477.69440187 6.51148396 473.85486827 10.34773636 470.00988007 C11.74910452 468.60774616 13.15299723 467.2081297 14.55971336 465.81136131 C29.02732759 451.54339434 29.02732759 451.54339434 39.4375 434.25 C39.88996094 433.24453125 40.34242188 432.2390625 40.80859375 431.203125 C46.16440172 416.80390358 46.17860848 399.55100998 40.55859375 385.23828125 C38.11758626 380.16661405 35.31609416 375.54312666 32 371 C31.278125 369.96875 30.55625 368.9375 29.8125 367.875 C18.54622865 355.17750851 1.45022457 347.7159365 -15.29296875 346.68359375 C-31.42984988 346.07095458 -47.07336131 349.70186626 -59.73303986 360.28467369 C-69.84984275 369.70876702 -79.60540578 379.48866554 -89.35867167 389.28658319 C-91.93877827 391.87731236 -94.5219395 394.46499279 -97.10476685 397.05300903 C-101.56571207 401.52359977 -106.02496643 405.99587107 -110.48320007 410.4691658 C-117.5304411 417.53991976 -124.58299003 424.60536664 -131.63635254 431.67001343 C-134.05543902 434.09309961 -136.47449093 436.51622032 -138.8935318 438.93935204 C-139.79985854 439.84720762 -139.79985854 439.84720762 -140.7244949 440.77340371 C-147.57796108 447.63857605 -154.43033347 454.50483967 -161.28222656 461.37158203 C-161.90757382 461.99828172 -162.53292108 462.62498142 -163.17721826 463.27067201 C-173.3412539 473.45695305 -183.50146254 483.64704485 -193.66074413 493.83806701 C-204.10945221 504.31913935 -214.56389701 514.79446639 -225.02328539 525.26488054 C-231.4668128 531.71563135 -237.90556088 538.17107985 -244.33824652 544.63264243 C-248.73850234 549.05186502 -253.1441656 553.46564753 -257.55416042 557.87515135 C-260.0984104 560.41946446 -262.64012179 562.96618788 -265.17534256 565.51950073 C-267.92144179 568.2850829 -270.67903139 571.03901962 -273.43786621 573.79190063 C-274.23931549 574.60277055 -275.04076476 575.41364047 -275.86650038 576.24908221 C-276.6069184 576.98414378 -277.34733642 577.71920535 -278.11019135 578.47654152 C-278.74525148 579.11328289 -279.38031161 579.75002425 -280.03461599 580.40606081 C-283.42160438 583.15293038 -286.09241792 584.03300298 -290.4375 583.875 C-301.84066148 581.0742235 -308.70530957 569.61689859 -314.515625 560.18359375 C-350.0700951 500.96950269 -366.19560592 432.18362239 -366.25 363.4375 C-366.25100708 362.54492493 -366.25201416 361.65234985 -366.25305176 360.73272705 C-366.24063171 344.32181986 -365.26552769 328.2712738 -363 312 C-362.86078125 310.98921387 -362.7215625 309.97842773 -362.578125 308.93701172 C-352.81442186 240.87360433 -319.39012259 172.46023138 -263.46875 130.56640625 C-262.89640625 130.14375488 -262.3240625 129.72110352 -261.734375 129.28564453 C-259.98509856 127.98895397 -258.25751986 126.66696209 -256.53125 125.33984375 C-242.10873216 114.36485285 -226.61729607 105.18346975 -210.5625 96.8125 C-209.54124023 96.27906982 -208.51998047 95.74563965 -207.46777344 95.19604492 C-190.52841441 86.52033199 -173.09921154 79.05471523 -155.33908081 72.23962402 C-150.31340671 70.30904292 -145.29796195 68.35216206 -140.28125 66.3984375 C-139.29813339 66.01602905 -138.31501678 65.63362061 -137.30210876 65.23962402 C-114.71555068 56.4469771 -92.66601165 46.8568605 -71 36 C-69.84725586 35.42491699 -68.69451172 34.84983398 -67.50683594 34.25732422 C-49.8318122 25.39981232 -32.54505324 15.866873 -15.99365234 5.03198242 C-14.53886475 4.08029175 -14.53886475 4.08029175 -13.0546875 3.109375 C-12.18827637 2.5328418 -11.32186523 1.95630859 -10.42919922 1.36230469 C-6.50563655 -0.83804503 -4.39905102 -0.98599419 0 0 Z " fill="#FCFCFC" transform="translate(643,129)"/>
<path d="M0 0 C0.33 0.99 0.66 1.98 1 3 C0.0479279 4.00596297 -0.91187346 5.00461563 -1.875 6 C-2.40867187 6.556875 -2.94234375 7.11375 -3.4921875 7.6875 C-5 9 -5 9 -7 9 C-7.24105469 9.5671875 -7.48210938 10.134375 -7.73046875 10.71875 C-11.10891659 16.78956089 -17.47815678 21.90314858 -23 26 C-23.66 25.67 -24.32 25.34 -25 25 C-16.75 16.75 -8.5 8.5 0 0 Z " fill="#101823" transform="translate(595,593)"/>
<path d="M0 0 C0.66 0.33 1.32 0.66 2 1 C-3.16205691 7.27309565 -8.87372593 12.6749489 -15 18 C-15 15 -15 15 -13.62304688 13.2824707 C-12.99462891 12.66976318 -12.36621094 12.05705566 -11.71875 11.42578125 C-11.04199219 10.75869141 -10.36523438 10.09160156 -9.66796875 9.40429688 C-8.95253906 8.71400391 -8.23710937 8.02371094 -7.5 7.3125 C-6.42685547 6.2596582 -6.42685547 6.2596582 -5.33203125 5.18554688 C-3.56120423 3.45013639 -1.78376544 1.7220927 0 0 Z " fill="#202630" transform="translate(409,662)"/>
<path d="M0 0 C0.99 0.33 1.98 0.66 3 1 C1.04761147 3.00612399 -0.91137822 5.00492433 -2.875 7 C-3.43058594 7.57234375 -3.98617187 8.1446875 -4.55859375 8.734375 C-6.00134404 10.19450782 -7.4974374 11.60149298 -9 13 C-9.66 13 -10.32 13 -11 13 C-10.45677238 9.205764 -8.9784232 7.7689044 -6.0625 5.375 C-5.35222656 4.78460937 -4.64195312 4.19421875 -3.91015625 3.5859375 C-3.27980469 3.06257812 -2.64945313 2.53921875 -2 2 C-1.34 1.34 -0.68 0.68 0 0 Z " fill="#19222D" transform="translate(546,760)"/>
<path d="M0 0 C0 0.33 0 0.66 0 1 C-1.01320313 1.19916016 -1.01320313 1.19916016 -2.046875 1.40234375 C-3.38492188 1.66724609 -3.38492188 1.66724609 -4.75 1.9375 C-5.63171875 2.11152344 -6.5134375 2.28554687 -7.421875 2.46484375 C-9.63235053 2.92368488 -11.81512068 3.43336074 -14 4 C-14.33 3.01 -14.66 2.02 -15 1 C-14.05125 0.855625 -13.1025 0.71125 -12.125 0.5625 C-4.67307692 -0.77884615 -4.67307692 -0.77884615 0 0 Z " fill="#161E2A" transform="translate(643,128)"/>
<path d="M0 0 C0.66 0 1.32 0 2 0 C0.15478757 4.11624312 -1.50970209 6.34149627 -5.6875 8.1875 C-6.450625 8.455625 -7.21375 8.72375 -8 9 C-7.04270084 7.87411986 -6.08412105 6.7493285 -5.125 5.625 C-4.59132813 4.99851562 -4.05765625 4.37203125 -3.5078125 3.7265625 C-2.38567993 2.44163349 -1.20628025 1.20628025 0 0 Z " fill="#1E2630" transform="translate(392,519)"/>
<path d="M0 0 C-1.5830577 4.2742558 -4.50568404 6.26531794 -8 9 C-8 6 -8 6 -6.7578125 4.39453125 C-5.94957031 3.61142578 -5.94957031 3.61142578 -5.125 2.8125 C-4.59132813 2.28269531 -4.05765625 1.75289062 -3.5078125 1.20703125 C-2 0 -2 0 0 0 Z " fill="#1B232E" transform="translate(679,628)"/>
<path d="M0 0 C0 3.97054597 -1.3139381 5.16471244 -4 8 C-6.140625 8.6484375 -6.140625 8.6484375 -8 9 C-7.04270084 7.87411986 -6.08412105 6.7493285 -5.125 5.625 C-4.59132813 4.99851562 -4.05765625 4.37203125 -3.5078125 3.7265625 C-2.38567993 2.44163349 -1.20628025 1.20628025 0 0 Z " fill="#353A42" transform="translate(587,718)"/>
<path d="M0 0 C0.33 0.99 0.66 1.98 1 3 C-1.97 5.475 -1.97 5.475 -5 8 C-5.66 7.67 -6.32 7.34 -7 7 C-4.69 4.69 -2.38 2.38 0 0 Z " fill="#101721" transform="translate(603,585)"/>
<path d="M0 0 C0.33 0.66 0.66 1.32 1 2 C-1.47812494 5.45167403 -2.79606135 7.23163306 -7 8 C-6.02133662 6.85373678 -5.04205413 5.70800212 -4.0625 4.5625 C-3.51722656 3.92441406 -2.97195313 3.28632812 -2.41015625 2.62890625 C-1.63204305 1.73008851 -0.84063472 0.84063472 0 0 Z " fill="#101720" transform="translate(633,555)"/>
</svg>
